<?xml version="1.0" encoding="UTF-8"?>
<svg version="1.1" xmlns="http://www.w3.org/2000/svg" width="1024" height="218">
<path d="M0 0 C1.01728935 -0.00503792 1.01728935 -0.00503792 2.05513 -0.01017761 C4.31151128 -0.01972325 6.56781849 -0.02163327 8.82421875 -0.02270508 C10.39306672 -0.02591785 11.96191438 -0.02928194 13.53076172 -0.03279114 C16.82959689 -0.0387933 20.12840584 -0.0406302 23.42724609 -0.04003906 C27.63576678 -0.03993799 31.84411666 -0.05352794 36.05259705 -0.07081127 C39.29901892 -0.08198926 42.54540046 -0.08395641 45.7918396 -0.08342934 C47.34183332 -0.08460312 48.89182829 -0.08899085 50.44180298 -0.0967617 C64.53447916 -0.16073573 77.94868136 0.83372717 88.51171875 11.14526367 C93.89468309 18.75566153 93.24956223 28.18659736 92.51171875 37.14526367 C89.9704379 50.73748584 83.023587 62.15980292 71.6953125 70.12573242 C67.73248341 72.68494961 63.76466681 75.098284 59.51171875 77.14526367 C59.91003906 77.52553711 60.30835938 77.90581055 60.71875 78.29760742 C66.892381 85.16220442 67.4004287 93.36830765 68.51171875 102.14526367 C68.64707031 103.16120605 68.78242188 104.17714844 68.921875 105.22387695 C71.8476923 127.28282612 71.8476923 127.28282612 71.51171875 136.14526367 C69.63268627 138.02429615 66.42365815 137.27579842 63.921875 137.27807617 C63.26215195 137.2790329 62.60242889 137.27998962 61.92271423 137.28097534 C60.52472844 137.28165703 59.12673951 137.27980353 57.72875977 137.27563477 C55.58667893 137.27029473 53.44480858 137.27557567 51.30273438 137.28198242 C49.94661412 137.28132147 48.59049399 137.28003996 47.234375 137.27807617 C45.99437744 137.27694824 44.75437988 137.27582031 43.47680664 137.2746582 C40.51171875 137.14526367 40.51171875 137.14526367 38.51171875 136.14526367 C38.10157776 134.31231689 38.10157776 134.31231689 37.87329102 131.88842773 C37.78302139 130.98368713 37.69275177 130.07894653 37.5997467 129.14678955 C37.46529396 127.66876862 37.46529396 127.66876862 37.328125 126.16088867 C37.12055675 124.09056474 36.91287072 122.0202526 36.70507812 119.94995117 C36.38773516 116.67393116 36.07443691 113.39756943 35.7644043 110.12084961 C35.4626326 106.96641839 35.14601128 103.81373051 34.828125 100.66088867 C34.6967086 99.19501312 34.6967086 99.19501312 34.56263733 97.69952393 C33.93730826 90.90511931 33.93730826 90.90511931 30.51171875 85.14526367 C26.97901795 83.18432939 23.98866553 82.90529779 19.9921875 82.94995117 C18.97060547 82.95639648 17.94902344 82.9628418 16.89648438 82.96948242 C15.84138672 82.98624023 14.78628906 83.00299805 13.69921875 83.02026367 C12.62478516 83.02928711 11.55035156 83.03831055 10.44335938 83.04760742 C7.79925021 83.07111061 5.15560003 83.10396792 2.51171875 83.14526367 C0.99872096 88.76420192 -0.51285747 94.38351949 -2.02319336 100.00317383 C-2.53583618 101.90985102 -3.04884846 103.81642893 -3.56225586 105.72290039 C-4.30552779 108.48321115 -5.04742256 111.24388903 -5.7890625 114.00463867 C-6.02891876 114.89445435 -6.26877502 115.78427002 -6.51589966 116.7010498 C-8.07183202 122.5001694 -9.5242183 128.3100557 -10.83666992 134.16967773 C-11.05170166 134.82162109 -11.2667334 135.47356445 -11.48828125 136.14526367 C-14.2943039 137.548275 -16.63846492 137.27501788 -19.7734375 137.27807617 C-21.02576172 137.27936523 -22.27808594 137.2806543 -23.56835938 137.28198242 C-24.88255859 137.27811523 -26.19675781 137.27424805 -27.55078125 137.27026367 C-29.52788086 137.27606445 -29.52788086 137.27606445 -31.54492188 137.28198242 C-32.79595703 137.28069336 -34.04699219 137.2794043 -35.3359375 137.27807617 C-36.49101807 137.27694824 -37.64609863 137.27582031 -38.83618164 137.2746582 C-41.48828125 137.14526367 -41.48828125 137.14526367 -42.48828125 136.14526367 C-41.99770974 131.57459019 -41.0857126 127.21186857 -39.921875 122.77026367 C-39.60516846 121.55298584 -39.28846191 120.33570801 -38.9621582 119.08154297 C-38.61677011 117.76943121 -38.27130924 116.4573386 -37.92578125 115.14526367 C-37.56756638 113.77402659 -37.20974461 112.40268675 -36.85229492 111.03125 C-36.29609991 108.89789482 -35.73951344 106.76464742 -35.18141174 104.63179016 C-33.89264719 99.70609451 -32.61896693 94.77671613 -31.35546875 89.84448242 C-25.44984308 66.80421962 -25.44984308 66.80421962 -22.34863281 55.8581543 C-20.47639374 49.21030376 -18.76790887 42.52208756 -17.05078125 35.83276367 C-14.82962803 27.2018928 -12.54895875 18.59328115 -10.11328125 10.02026367 C-9.73731812 8.68741333 -9.73731812 8.68741333 -9.35375977 7.32763672 C-7.25392817 0.02244467 -7.25392817 0.02244467 0 0 Z M17.51171875 24.14526367 C14.92292016 30.63669556 13.06152387 37.19299781 11.32421875 43.95776367 C11.05158203 44.99352539 10.77894531 46.02928711 10.49804688 47.09643555 C9.0168377 52.55219745 9.0168377 52.55219745 8.51171875 58.14526367 C34.64580798 60.17574689 34.64580798 60.17574689 57.51171875 50.14526367 C61.65191631 44.6976353 63.11161177 39.01300444 62.51171875 32.14526367 C60.92151939 28.46883947 58.52505771 26.57602036 54.82958984 25.00512695 C50.99470491 24.01127377 47.41676616 23.89305522 43.48828125 23.94995117 C42.74210541 23.95278107 41.99592957 23.95561096 41.22714233 23.95852661 C38.86349887 23.9696468 36.50024607 23.99473546 34.13671875 24.02026367 C32.52604717 24.03030405 30.9153696 24.03942805 29.3046875 24.04760742 C25.37354931 24.06955928 21.44270008 24.10403182 17.51171875 24.14526367 Z " fill="#FFFFFF" transform="translate(180.48828125,40.854736328125)"/>
<path d="M0 0 C7.34453924 4.41546704 12.06226717 10.49138074 14.7890625 18.6328125 C19.11735421 37.56146851 12.7684338 57.62469262 2.703125 73.734375 C-3.7982709 82.91540029 -11.31986693 90.33765408 -21.59375 94.93359375 C-22.56344727 95.38798828 -22.56344727 95.38798828 -23.55273438 95.8515625 C-30.12911063 98.86211114 -35.73333317 99.38662155 -42.84375 99.43359375 C-43.61267578 99.45421875 -44.38160156 99.47484375 -45.17382812 99.49609375 C-53.19696946 99.55025842 -59.14908227 97.60253487 -65.03125 91.99609375 C-65.794375 91.28066406 -66.5575 90.56523437 -67.34375 89.828125 C-67.900625 89.28542969 -68.4575 88.74273437 -69.03125 88.18359375 C-72.74558388 101.62407897 -76.33666663 115.09026928 -79.75805664 128.60864258 C-80.04028076 129.71232178 -80.32250488 130.81600098 -80.61328125 131.953125 C-80.86311768 132.93901611 -81.1129541 133.92490723 -81.37036133 134.94067383 C-82.03125 137.18359375 -82.03125 137.18359375 -83.03125 138.18359375 C-85.24980264 138.27142917 -87.47113496 138.29053984 -89.69140625 138.28125 C-90.68810585 138.27912758 -90.68810585 138.27912758 -91.7049408 138.27696228 C-93.83458899 138.27134893 -95.96413339 138.25879429 -98.09375 138.24609375 C-99.53450369 138.24108046 -100.97525903 138.23651726 -102.41601562 138.23242188 C-105.95446102 138.2213752 -109.49284539 138.20410167 -113.03125 138.18359375 C-112.45584346 131.59030724 -111.23118967 125.53837116 -109.44140625 119.17578125 C-109.05117531 117.75468048 -109.05117531 117.75468048 -108.65306091 116.30487061 C-108.09510602 114.27467149 -107.53423903 112.24527081 -106.97070312 110.21661377 C-105.4776144 104.83981091 -104.00670935 99.45694836 -102.53515625 94.07421875 C-102.23779572 92.9881131 -101.94043518 91.90200745 -101.63406372 90.7829895 C-98.40580903 78.95696055 -95.36720179 67.08443142 -92.36743164 55.19873047 C-90.2844872 46.96253739 -88.10686039 38.76180401 -85.81341553 30.58157349 C-83.77377869 23.29954359 -81.87968052 15.98300616 -80.0078125 8.65625 C-79.76289062 7.70621094 -79.51796875 6.75617188 -79.265625 5.77734375 C-79.05131836 4.93880859 -78.83701172 4.10027344 -78.61621094 3.23632812 C-78.03125 1.18359375 -78.03125 1.18359375 -77.03125 -0.81640625 C-67.13125 -0.81640625 -57.23125 -0.81640625 -47.03125 -0.81640625 C-47.69125 2.48359375 -48.35125 5.78359375 -49.03125 9.18359375 C-48.42539062 8.7246875 -47.81953125 8.26578125 -47.1953125 7.79296875 C-33.95609344 -1.90221321 -15.69334457 -7.76605579 0 0 Z M-52.46484375 31.875 C-55.29238878 36.04227958 -57.21799343 40.50170863 -59.03125 45.18359375 C-59.464375 46.29734375 -59.8975 47.41109375 -60.34375 48.55859375 C-61.54403877 54.88738909 -62.92607493 63.08306167 -59.28125 68.80859375 C-54.93997464 73.39105107 -51.93825671 74.80486386 -45.6875 75.24609375 C-38.64260156 75.08033143 -32.08752363 72.04539531 -27.03125 67.18359375 C-18.86596732 57.44806441 -14.96689848 44.79813031 -16.03125 32.18359375 C-16.91011092 28.25106352 -18.57389564 25.65298375 -21.40625 22.74609375 C-33.55045888 17.51152096 -44.5425758 22.1513811 -52.46484375 31.875 Z " fill="#FFFFFF" transform="translate(766.03125,79.81640625)"/>
<path d="M0 0 C3.93980368 2.71408698 7.46125188 5.73123463 10.7578125 9.2109375 C10.9021875 8.1178125 11.0465625 7.0246875 11.1953125 5.8984375 C11.7578125 2.2109375 11.7578125 2.2109375 12.7578125 -0.7890625 C22.6578125 -0.7890625 32.5578125 -0.7890625 42.7578125 -0.7890625 C41.38451088 6.76409643 39.86251208 13.97658411 37.8203125 21.3359375 C37.19880254 23.61186555 36.57774156 25.88791623 35.95703125 28.1640625 C35.6120459 29.42412109 35.26706055 30.68417969 34.91162109 31.98242188 C32.86987227 39.45287552 30.86147474 46.93236865 28.85202026 54.41156006 C28.15445161 57.00547235 27.45442314 59.59871118 26.75415039 62.19189453 C26.30454488 63.86222252 25.85524211 65.53263202 25.40625 67.203125 C25.1870842 68.01641266 24.9679184 68.82970032 24.74211121 69.66763306 C23.56725211 74.06100893 22.44423834 78.46225763 21.37988281 82.88378906 C21.15603912 83.80805695 20.93219543 84.73232483 20.7015686 85.68460083 C20.27291139 87.46658639 19.85138457 89.2503059 19.43783569 91.03585815 C18.93875688 93.10983356 18.3560713 95.1633682 17.7578125 97.2109375 C14.93957058 98.62005846 12.58529968 98.32277303 9.4375 98.30859375 C8.18066406 98.30537109 6.92382812 98.30214844 5.62890625 98.29882812 C4.31019531 98.29044922 2.99148438 98.28207031 1.6328125 98.2734375 C0.29297039 98.26842239 -1.0468735 98.26385951 -2.38671875 98.25976562 C-5.67191956 98.24794836 -8.95703147 98.23147367 -12.2421875 98.2109375 C-13.51570058 95.66391134 -13.04410675 94.782643 -12.3046875 92.0859375 C-12.11003906 91.36148438 -11.91539062 90.63703125 -11.71484375 89.890625 C-11.55886719 89.33632812 -11.40289062 88.78203125 -11.2421875 88.2109375 C-11.77585937 88.59765625 -12.30953125 88.984375 -12.859375 89.3828125 C-24.82094037 97.74349141 -37.42431008 101.16677135 -52.02734375 98.75 C-60.00096344 96.65492218 -66.70373276 92.2196815 -71.2109375 85.23046875 C-77.59719283 72.72405206 -76.2660813 58.651149 -72.36328125 45.6328125 C-71.99332031 44.50359375 -71.62335938 43.374375 -71.2421875 42.2109375 C-70.96503906 41.32921875 -70.68789063 40.4475 -70.40234375 39.5390625 C-68.52752607 34.25155826 -65.79321915 29.61694582 -62.8046875 24.8984375 C-62.24744995 24.0175647 -62.24744995 24.0175647 -61.67895508 23.11889648 C-59.21700049 19.36399996 -56.50255684 16.2855896 -53.2421875 13.2109375 C-52.57058594 12.54191406 -51.89898437 11.87289062 -51.20703125 11.18359375 C-38.67353809 -0.62542004 -16.47535578 -9.10990261 0 0 Z M-34.2421875 31.2109375 C-38.01981367 36.09159147 -40.34791161 41.37419993 -42.2421875 47.2109375 C-42.6340625 48.3246875 -43.0259375 49.4384375 -43.4296875 50.5859375 C-44.75013351 56.47715815 -45.07501812 61.84394522 -43.0546875 67.5859375 C-40.70893785 70.98323009 -38.28214843 73.36681574 -34.4296875 74.9609375 C-26.03838319 75.91994371 -20.46426971 74.49086189 -13.1171875 70.5234375 C-6.36436685 65.09182089 -2.94583527 58.32188081 -0.2421875 50.2109375 C-0.0153125 49.5303125 0.2115625 48.8496875 0.4453125 48.1484375 C2.30058449 41.7580562 2.90569307 34.70783704 0.6953125 28.3359375 C-1.677793 24.50834799 -3.98113078 22.50778085 -8.2421875 21.2109375 C-19.17202408 19.79648806 -26.77761598 23.3534938 -34.2421875 31.2109375 Z " fill="#FFFFFF" transform="translate(340.2421875,79.7890625)"/>
<path d="M0 0 C4.29777099 2.61930701 7.19681939 5.92369182 10.1875 9.9375 C11.1775 6.6375 12.1675 3.3375 13.1875 -0.0625 C23.0875 -0.0625 32.9875 -0.0625 43.1875 -0.0625 C41.83871893 8.03018644 40.34873828 15.5149668 38.0625 23.3125 C37.43195577 25.51515676 36.80312281 27.71830394 36.17578125 29.921875 C35.68585693 31.63987305 35.68585693 31.63987305 35.18603516 33.39257812 C33.48424758 39.43413206 31.86466741 45.49717732 30.25 51.5625 C29.9209668 52.79427979 29.59193359 54.02605957 29.25292969 55.29516602 C27.44747873 62.0857455 25.68728661 68.88526125 23.97265625 75.69921875 C23.6074311 77.14308933 23.24211642 78.58693726 22.87670898 80.03076172 C22.175482 82.80229874 21.48531127 85.57628868 20.80102539 88.35205078 C20.33104126 90.21385986 20.33104126 90.21385986 19.8515625 92.11328125 C19.57779785 93.21583252 19.3040332 94.31838379 19.02197266 95.4543457 C18.1875 97.9375 18.1875 97.9375 16.1875 98.9375 C14.16721648 99.03469073 12.14371269 99.06826517 10.12109375 99.0703125 C8.91388672 99.07160156 7.70667969 99.07289063 6.46289062 99.07421875 C4.56313477 99.06841797 4.56313477 99.06841797 2.625 99.0625 C1.35462891 99.06636719 0.08425781 99.07023437 -1.22460938 99.07421875 C-2.43052734 99.07292969 -3.63644531 99.07164062 -4.87890625 99.0703125 C-5.99209229 99.06918457 -7.10527832 99.06805664 -8.25219727 99.06689453 C-10.8125 98.9375 -10.8125 98.9375 -11.8125 97.9375 C-12.08169991 93.8995014 -11.74387318 91.45672149 -9.8125 87.9375 C-10.41835938 88.39640625 -11.02421875 88.8553125 -11.6484375 89.328125 C-23.38741031 97.92466509 -34.26963065 100.91043844 -48.8125 99.9375 C-57.99698418 98.13783756 -63.6271287 94.84430076 -69.234375 87.34765625 C-75.37344521 77.97189803 -76.12395763 66.55089256 -74.09375 55.76171875 C-72.32103962 47.34770585 -69.96079561 39.51505331 -65.8125 31.9375 C-65.23628906 30.87917969 -64.66007813 29.82085937 -64.06640625 28.73046875 C-55.40480563 13.76001616 -44.21431079 4.18070181 -27.8125 -1.0625 C-19.72932296 -3.75689235 -7.71835064 -3.61057814 0 0 Z M-34.28515625 32.71484375 C-40.29119171 41.45508462 -45.26392186 53.15550906 -43.8125 63.9375 C-42.14526643 68.52025484 -40.26817061 72.57042499 -35.8125 74.9375 C-28.9834428 77.52783204 -22.27451263 75.54141636 -15.8125 72.9375 C-14.47141103 72.28657558 -13.13552453 71.62439761 -11.8125 70.9375 C-11.8125 70.2775 -11.8125 69.6175 -11.8125 68.9375 C-11.1525 68.9375 -10.4925 68.9375 -9.8125 68.9375 C-5.16280639 63.46990848 -1.93649095 57.75662883 0.1875 50.9375 C0.579375 49.865 0.97125 48.7925 1.375 47.6875 C2.77494281 41.22622551 3.66421878 33.96212311 0.5625 27.875 C-2.69655933 23.8440582 -5.12942024 22.3135537 -10.29296875 21.58984375 C-20.37617334 21.03519639 -28.03706234 24.84959612 -34.28515625 32.71484375 Z " fill="#FFFFFF" transform="translate(861.8125,79.0625)"/>
<path d="M0 0 C-0.62537073 5.03515107 -1.64618621 9.83119458 -3.00390625 14.72265625 C-3.20271393 15.45243179 -3.40152161 16.18220734 -3.60635376 16.93409729 C-4.03296178 18.49825445 -4.46146094 20.06189684 -4.89169312 21.62506104 C-5.57329255 24.10171572 -6.24987563 26.57969168 -6.92504883 29.05810547 C-7.84427107 32.43215156 -8.76493588 35.80579849 -9.68652344 39.17919922 C-11.54423876 45.98806514 -13.36994031 52.80530998 -15.1875 59.625 C-15.51540527 60.85436279 -15.84331055 62.08372559 -16.18115234 63.3503418 C-18.22046895 71.0159052 -20.21375815 78.69234028 -22.1875 86.375 C-26.04833371 101.39153218 -30.14307323 116.34482996 -34.21679688 131.3046875 C-36.6358912 140.19837807 -39.05199849 149.09089765 -41.32421875 158.0234375 C-41.64777344 159.29445312 -41.97132812 160.56546875 -42.3046875 161.875 C-42.87507753 164.13636934 -43.4393179 166.39930275 -43.99609375 168.6640625 C-44.2384375 169.62828125 -44.48078125 170.5925 -44.73046875 171.5859375 C-44.93051514 172.4011084 -45.13056152 173.2162793 -45.33666992 174.05615234 C-46 176 -46 176 -48 178 C-50.43744897 178.17488254 -52.7593608 178.23177405 -55.1953125 178.1953125 C-55.90275604 178.1924826 -56.61019958 178.18965271 -57.33908081 178.18673706 C-59.6012251 178.17553137 -61.86297515 178.15042679 -64.125 178.125 C-65.65754637 178.11497067 -67.19009894 178.10584474 -68.72265625 178.09765625 C-72.48192301 178.07559086 -76.24089464 178.04105896 -80 178 C-80.97373314 174.93688687 -80.99708396 173.06678704 -80.1015625 169.9921875 C-79.87428467 169.1887793 -79.64700684 168.38537109 -79.4128418 167.55761719 C-79.152854 166.67235352 -78.89286621 165.78708984 -78.625 164.875 C-78.05954174 162.8780724 -77.49585628 160.88064226 -76.93359375 158.8828125 C-76.46735596 157.23587402 -76.46735596 157.23587402 -75.99169922 155.55566406 C-74.35458865 149.68592544 -72.80538229 143.7931296 -71.25375366 137.90036011 C-70.48863694 134.99481336 -69.72105149 132.0899206 -68.95362854 129.1849823 C-68.3643131 126.95396188 -67.77541931 124.72283042 -67.18652344 122.49169922 C-66.00469803 118.01587309 -64.81918018 113.54103023 -63.6328125 109.06640625 C-59.38775041 93.05307399 -55.16379866 77.03470701 -51 61 C-57.6174634 64.91271307 -64.01716399 68.98682202 -70.3359375 73.36328125 C-72.67008869 74.79731255 -74.32882679 75.56324419 -77 76 C-77 76.66 -77 77.32 -77 78 C-78.9965338 79.38706559 -80.97256507 80.64385281 -83.0625 81.875 C-83.65506592 82.23142578 -84.24763184 82.58785156 -84.8581543 82.95507812 C-88.87271019 85.36128228 -92.91316105 87.71897361 -97 90 C-98.70649962 84.88050114 -96.33424308 79.73486586 -94.93212891 74.65820312 C-94.38014895 72.64379073 -93.85553352 70.62353449 -93.33203125 68.6015625 C-92.98082677 67.30944346 -92.62801246 66.0177607 -92.2734375 64.7265625 C-91.95810059 63.55689941 -91.64276367 62.38723633 -91.31787109 61.18212891 C-89.06978621 55.75390765 -85.03314849 52.78644044 -80.125 49.8125 C-75.5185793 46.9629756 -70.99499409 44.02034053 -66.5 41 C-61.33667049 37.53947065 -56.13208755 34.16072191 -50.875 30.84375 C-47.38652968 28.60657882 -43.942766 26.30665322 -40.5 24 C-35.34543828 20.54644365 -30.15211699 17.17103311 -24.90234375 13.86328125 C-20.59885149 11.10047397 -16.35890423 8.24312867 -12.125 5.375 C-4.13880126 0 -4.13880126 0 0 0 Z " fill="#3294FF" transform="translate(154,0)"/>
<path d="M0 0 C3.07275391 -0.34057617 3.07275391 -0.34057617 6.9765625 -0.29296875 C7.66181 -0.28872391 8.3470575 -0.28447906 9.05307007 -0.28010559 C11.24411129 -0.26329753 13.43423632 -0.22564405 15.625 -0.1875 C17.10936173 -0.17245579 18.59373785 -0.15876693 20.078125 -0.14648438 C23.71904833 -0.1133879 27.35943478 -0.06159207 31 0 C30.36613514 3.49321249 29.8161098 5.6731571 27.5625 8.4375 C24.619922 12.17938404 21.81995646 15.99607754 19.0625 19.875 C18.62752197 20.48529053 18.19254395 21.09558105 17.74438477 21.72436523 C14.74858711 25.93262737 11.78210654 30.16071631 8.828125 34.3984375 C7.07046227 36.89972677 5.2929474 39.38607083 3.51000977 41.86938477 C-0.69532501 47.72882332 -4.84513918 53.62351945 -8.9375 59.5625 C-9.39801758 60.22910645 -9.85853516 60.89571289 -10.33300781 61.58251953 C-12.22569505 64.33889417 -14.03287488 67.05762595 -15.69140625 69.96484375 C-16.12324219 70.63644531 -16.55507813 71.30804688 -17 72 C-17.66 72 -18.32 72 -19 72 C-19.40605469 73.10601562 -19.40605469 73.10601562 -19.8203125 74.234375 C-20.95242438 76.88846511 -22.18966573 78.91904016 -23.875 81.25 C-24.48601562 82.10464844 -25.09703125 82.95929688 -25.7265625 83.83984375 C-26.47679687 84.88269531 -27.22703125 85.92554688 -28 87 C-30.08875653 89.93367049 -32.16947145 92.87299153 -34.25 95.8125 C-34.76933105 96.54178711 -35.28866211 97.27107422 -35.82373047 98.02246094 C-37.91700423 100.9751931 -39.92640788 103.87220827 -41.734375 107.01171875 C-42.15203125 107.66785156 -42.5696875 108.32398438 -43 109 C-43.66 109 -44.32 109 -45 109 C-45.22558594 109.66902344 -45.45117188 110.33804688 -45.68359375 111.02734375 C-47.38677577 114.87340166 -49.65517048 118.12582958 -52.0625 121.5625 C-52.50271484 122.20251953 -52.94292969 122.84253906 -53.39648438 123.50195312 C-54.35194669 124.8793777 -55.32814979 126.2425708 -56.32104492 127.59326172 C-58.10625889 130.07525251 -58.10625889 130.07525251 -59.8137207 133.17626953 C-64.96322069 141.46224418 -64.96322069 141.46224418 -70.62573242 142.95727539 C-74.79292963 143.32362064 -78.89986011 143.05218456 -83.0625 142.75 C-84.51475173 142.68969889 -85.96724584 142.6349647 -87.41992188 142.5859375 C-90.95171562 142.45473682 -94.47428233 142.24840211 -98 142 C-95.7136141 137.95675913 -93.41560225 133.95321287 -90.875 130.0625 C-90.12863281 128.90427734 -90.12863281 128.90427734 -89.3671875 127.72265625 C-88.91601562 127.15417969 -88.46484375 126.58570313 -88 126 C-87.34 126 -86.68 126 -86 126 C-85.72905518 125.26120605 -85.45811035 124.52241211 -85.17895508 123.76123047 C-84.05497321 121.12875275 -82.82573365 119.1180229 -81.13671875 116.8203125 C-80.57919922 116.05589844 -80.02167969 115.29148437 -79.44726562 114.50390625 C-78.86654297 113.71886719 -78.28582031 112.93382812 -77.6875 112.125 C-75.98504114 109.79978439 -74.28316609 107.47520114 -72.60302734 105.13378906 C-71 103 -71 103 -69.43212891 101.32714844 C-67.08879755 98.69788692 -66.06501084 96.88910443 -65.8046875 93.32885742 C-66.01108321 89.8368725 -66.45822197 86.45644603 -67 83 C-67.10584412 82.31975769 -67.21168823 81.63951538 -67.32073975 80.93865967 C-68.05914407 76.27276407 -68.87869199 71.62354471 -69.72531128 66.97619629 C-70.52301276 62.5946056 -71.29852981 58.20906016 -72.078125 53.82421875 C-72.23764145 52.93054596 -72.3971579 52.03687317 -72.56150818 51.11611938 C-74.10441514 42.45926249 -75.58863697 33.79300636 -77.04019165 25.12039185 C-77.30375271 23.54795321 -77.56869262 21.97574503 -77.83505249 20.40377808 C-78.20448951 18.22284205 -78.56967988 16.0412385 -78.93359375 13.859375 C-79.14040771 12.62670898 -79.34722168 11.39404297 -79.56030273 10.12402344 C-80 7 -80 7 -80 3 C-69.44 3 -58.88 3 -48 3 C-45.24177623 23.13503355 -45.24177623 23.13503355 -43.9453125 33 C-43.76597769 34.3605179 -43.58661577 35.72103224 -43.40722656 37.08154297 C-43.14147809 39.09733791 -42.87653288 41.11322147 -42.61413574 43.12945557 C-42.36719258 45.02667447 -42.11724539 46.92350162 -41.8671875 48.8203125 C-41.72394043 49.91617676 -41.58069336 51.01204102 -41.43310547 52.14111328 C-41.07768736 54.48719338 -40.63099425 56.71584229 -40 59 C-38.7809117 57.27295824 -37.5618296 55.54591211 -36.34277344 53.81884766 C-35.26800557 52.29631476 -34.19313336 50.77385553 -33.11816406 49.25146484 C-30.347207 45.32688156 -27.57774603 41.40126604 -24.8125 37.47265625 C-23.79166802 36.02343654 -22.77083471 34.57421778 -21.75 33.125 C-21.25000488 32.41400146 -20.75000977 31.70300293 -20.23486328 30.97045898 C-17.42062252 26.97795842 -14.54891225 23.03837305 -11.625 19.125 C-8.39421977 14.72306194 -5.745424 10.15321707 -3.2265625 5.3125 C-2 3 -2 3 0 0 Z " fill="#FFFFFF" transform="translate(993,76)"/>
<path d="M0 0 C7.18871378 5.65863892 10.92103673 13.02884925 12.34765625 21.97265625 C14.39965458 39.87064168 7.85211566 57.25027216 -2.890625 71.32421875 C-13.36225097 84.4178739 -27.87780063 92.88418074 -44.68359375 95.05078125 C-57.73425469 96.26530976 -71.40001113 95.32982708 -82.65625 87.921875 C-83.22214844 87.42816406 -83.78804688 86.93445313 -84.37109375 86.42578125 C-84.37109375 85.76578125 -84.37109375 85.10578125 -84.37109375 84.42578125 C-85.36109375 84.09578125 -86.35109375 83.76578125 -87.37109375 83.42578125 C-93.86749027 76.21613052 -94.80481693 66.34007502 -94.5546875 57.01171875 C-93.24913907 38.62293021 -85.45859699 21.08545611 -71.859375 8.44921875 C-52.6484013 -7.17289174 -21.93540468 -14.56337411 0 0 Z M-53.12109375 25.55078125 C-59.80961298 35.07263155 -65.13742407 46.22001955 -64.0234375 58.1484375 C-63.15742442 62.49924574 -61.92862995 66.01170233 -58.58984375 69.04296875 C-53.97155691 71.92126724 -48.02655659 71.98503782 -42.79296875 70.8828125 C-39.14855883 69.69415562 -35.7803897 68.17237806 -32.37109375 66.42578125 C-32.37109375 65.76578125 -32.37109375 65.10578125 -32.37109375 64.42578125 C-31.38109375 64.09578125 -30.39109375 63.76578125 -29.37109375 63.42578125 C-25.04105154 58.20752526 -22.56718346 52.81164579 -20.37109375 46.42578125 C-20.14292969 45.76707031 -19.91476562 45.10835937 -19.6796875 44.4296875 C-17.61063013 37.4701309 -17.25944009 29.76074223 -19.55859375 22.86328125 C-21.65161604 20.04852713 -23.22585829 18.96559054 -26.37109375 17.42578125 C-36.95008918 16.00758259 -46.12847734 17.09076353 -53.12109375 25.55078125 Z " fill="#FFFFFF" transform="translate(573.37109375,83.57421875)"/>
<path d="M0 0 C27.39 0 54.78 0 83 0 C80.40535931 20.75712553 80.40535931 20.75712553 73.0625 26.625 C72.09441406 27.31851563 71.12632812 28.01203125 70.12890625 28.7265625 C66.64992491 31.25436168 63.61091484 34.0429216 60.5 37 C55.74288086 41.46251085 50.83494595 45.63827996 45.74609375 49.72265625 C42.21240767 52.65315267 38.86280428 55.76582226 35.50439453 58.89233398 C31.17811133 62.89524273 26.6764066 66.62640842 22.08203125 70.3203125 C20.13181795 71.83273177 20.13181795 71.83273177 19 73 C42.265 73.495 42.265 73.495 66 74 C61.09090909 96.90909091 61.09090909 96.90909091 59 99 C56.38311559 99.09509559 53.792711 99.12556 51.17553711 99.11352539 C50.35609116 99.11367142 49.5366452 99.11381744 48.69236755 99.1139679 C45.97066647 99.11326852 43.24903295 99.10547501 40.52734375 99.09765625 C38.64547259 99.09579216 36.76360094 99.09436821 34.88172913 99.09336853 C29.91851471 99.08954267 24.95532936 99.07971181 19.99212646 99.06866455 C14.93160394 99.0584519 9.87107673 99.05387122 4.81054688 99.04882812 C-5.12631488 99.0380896 -15.06315503 99.02101236 -25 99 C-27.23741444 92.28775668 -23.81740522 83.26045958 -21 77 C-17.83267849 72.4096616 -13.48578043 69.22160594 -9 66 C-8.21367187 65.40058594 -7.42734375 64.80117187 -6.6171875 64.18359375 C-5.30673249 63.18954137 -3.98598078 62.20882151 -2.65234375 61.24609375 C-0.1964863 59.3940405 1.85243252 57.19870004 4 55 C7.29881407 51.96102402 10.64601181 48.97783999 14 46 C14.70382812 45.36835937 15.40765625 44.73671875 16.1328125 44.0859375 C20.76095972 40 20.76095972 40 23 40 C23 39.34 23 38.68 23 38 C24.71951974 36.46148234 26.50187497 34.99268241 28.3125 33.5625 C31.38052524 31.12813226 34.22703147 28.77296853 37 26 C23.14 25.67 9.28 25.34 -5 25 C-7.68741925 16.93774225 -2.23606798 8.19891592 0 0 Z " fill="#FFFFFF" transform="translate(400,79)"/>
<path d="M0 0 C-0.54654995 6.03426692 -1.5152894 11.54416666 -3.234375 17.34375 C-3.68896169 18.92815305 -4.1427092 20.51279707 -4.59570312 22.09765625 C-4.94532104 23.31122803 -4.94532104 23.31122803 -5.30200195 24.54931641 C-6.43632539 28.53194621 -7.5076711 32.53106462 -8.578125 36.53125 C-8.79388687 37.33533295 -9.00964874 38.13941589 -9.23194885 38.96786499 C-9.67675521 40.62615845 -10.12117262 42.28455629 -10.56521606 43.9430542 C-11.26942803 46.57254322 -11.97533549 49.20157333 -12.68139648 51.83056641 C-15.03032914 60.58561176 -17.35882357 69.34541252 -19.64453125 78.1171875 C-20.05756079 79.69728037 -20.47064538 81.27735885 -20.88378906 82.85742188 C-21.65638745 85.8128596 -22.42152919 88.77009563 -23.18261719 91.72851562 C-23.52902334 93.05606099 -23.87568762 94.38353904 -24.22265625 95.7109375 C-24.51922119 96.85868652 -24.81578613 98.00643555 -25.12133789 99.18896484 C-26 102 -26 102 -28 105 C-30.74612427 105.36076355 -30.74612427 105.36076355 -34.28564453 105.34057617 C-34.92967224 105.34101425 -35.57369995 105.34145233 -36.23724365 105.34190369 C-38.36940664 105.33981094 -40.50078662 105.31645865 -42.6328125 105.29296875 C-44.10968598 105.28737448 -45.58656502 105.28310359 -47.06344604 105.28010559 C-50.95326063 105.26864335 -54.8427399 105.23916473 -58.73242188 105.20599365 C-62.70047469 105.17532222 -66.6685816 105.16160655 -70.63671875 105.14648438 C-78.42463214 105.11429599 -86.21226911 105.06308345 -94 105 C-94.06358309 100.01666391 -93.66515082 95.85456056 -92.390625 91.02734375 C-92.22254333 90.38237442 -92.05446167 89.73740509 -91.88128662 89.07289124 C-91.34547587 87.02557127 -90.79781768 84.98163562 -90.25 82.9375 C-89.89768876 81.59459725 -89.54612101 80.25149922 -89.1953125 78.90820312 C-88.49776775 76.24584795 -87.78518323 73.5882094 -87.06054688 70.93310547 C-86.34345129 68.3045438 -85.66721769 65.66992503 -85.01757812 63.02392578 C-84.69724609 61.77981934 -84.37691406 60.53571289 -84.046875 59.25390625 C-83.77198242 58.14474854 -83.49708984 57.03559082 -83.21386719 55.89282227 C-80.91551679 50.41551858 -75.48610475 47.9457678 -70.625 44.875 C-65.54101466 41.64415703 -60.50227652 38.35594115 -55.5 35 C-48.39246251 30.23929959 -41.20888274 25.60528233 -34 21 C-24.17524617 14.71820189 -14.36764062 8.41252766 -4.78125 1.76953125 C-2 0 -2 0 0 0 Z " fill="#FFFFFF" transform="translate(94,73)"/>
<path d="M0 0 C2.43359375 2.03515625 2.43359375 2.03515625 4 4 C3.23379483 6.8346563 2.46217664 9.66765789 1.6875 12.5 C1.47416016 13.29148437 1.26082031 14.08296875 1.04101562 14.8984375 C-0.3757259 20.05791409 -2.05118371 25.0165167 -4 30 C-5.96529211 29.51339021 -7.92183147 29.02256748 -9.8671875 28.4609375 C-19.42682618 26.394935 -26.76946294 28.15383436 -35 33 C-35.99 33.33 -36.98 33.66 -38 34 C-39.10189847 35.81185792 -39.10189847 35.81185792 -40 38 C-40.39058594 38.72316406 -40.78117188 39.44632813 -41.18359375 40.19140625 C-44.42485968 46.32052905 -46.39645491 52.27304499 -48 59 C-48.50527712 61.02634959 -49.01180305 63.05238817 -49.51953125 65.078125 C-49.76654785 66.07521484 -50.01356445 67.07230469 -50.26806641 68.09960938 C-51.52427961 73.07753227 -52.91647963 78.01588734 -54.30981445 82.95678711 C-55.72883194 87.99450248 -57.06384848 93.04876351 -58.32421875 98.12890625 C-59 100 -59 100 -61 101 C-63.10528933 101.08543895 -65.21331157 101.10714725 -67.3203125 101.09765625 C-68.57714844 101.09443359 -69.83398438 101.09121094 -71.12890625 101.08789062 C-72.44761719 101.07951172 -73.76632812 101.07113281 -75.125 101.0625 C-76.46484211 101.05748489 -77.804686 101.05292201 -79.14453125 101.04882812 C-82.42973206 101.03701086 -85.71484397 101.02053617 -89 101 C-90.54659932 97.0184218 -89.41930668 94.06897041 -88.26171875 90.0703125 C-88.0655043 89.38013535 -87.86928986 88.68995819 -87.66712952 87.97886658 C-87.23997883 86.47943745 -86.80848171 84.98124127 -86.37316895 83.48416138 C-85.19602433 79.43399382 -84.05102827 75.37471896 -82.90234375 71.31640625 C-82.66250763 70.4721257 -82.42267151 69.62784515 -82.17556763 68.75798035 C-79.57201469 59.55964794 -77.15721646 50.31375415 -74.75 41.0625 C-71.33998135 27.98738329 -67.79154934 14.97108984 -64 2 C-54.1 2 -44.2 2 -34 2 C-34.33 4.97 -34.66 7.94 -35 11 C-34.113125 10.113125 -33.22625 9.22625 -32.3125 8.3125 C-23.38302334 0.77881328 -11.43339032 -2.01438833 0 0 Z " fill="#FFFFFF" transform="translate(675,77)"/>
</svg>
